<svg width="21" height="16" viewBox="0 0 21 16" fill="none" xmlns="http://www.w3.org/2000/svg">
<path d="M13.4733 9.38C13.6602 9.19683 13.809 8.97842 13.911 8.73741C14.0129 8.49639 14.0661 8.23756 14.0674 7.97586C14.0688 7.71416 14.0182 7.4548 13.9187 7.21277C13.8191 6.97073 13.6726 6.75084 13.4875 6.56579C13.3025 6.38074 13.0826 6.23421 12.8406 6.13467C12.5985 6.03513 12.3392 5.98456 12.0775 5.98588C11.8158 5.98721 11.5569 6.04039 11.3159 6.14237C11.0749 6.24435 10.8565 6.39309 10.6733 6.58C10.3082 6.95258 10.1049 7.4542 10.1075 7.97586C10.1101 8.49752 10.3185 8.99706 10.6874 9.36593C11.0563 9.7348 11.5558 9.9432 12.0775 9.94583C12.5991 9.94847 13.1008 9.74513 13.4733 9.38ZM5.29867 9.38C5.48558 9.19683 5.63432 8.97842 5.7363 8.73741C5.83827 8.49639 5.89146 8.23756 5.89278 7.97586C5.8941 7.71416 5.84353 7.4548 5.744 7.21277C5.64446 6.97073 5.49793 6.75084 5.31288 6.56579C5.12783 6.38074 4.90793 6.23421 4.6659 6.13467C4.42387 6.03513 4.16451 5.98456 3.90281 5.98588C3.64111 5.98721 3.38227 6.04039 3.14126 6.14237C2.90024 6.24435 2.68184 6.39309 2.49867 6.58C2.13354 6.95258 1.9302 7.4542 1.93283 7.97586C1.93547 8.49752 2.14386 8.99706 2.51274 9.36593C2.88161 9.7348 3.38115 9.9432 3.90281 9.94583C4.42447 9.94847 4.92609 9.74513 5.29867 9.38ZM9.414 2.50667C9.23104 2.31924 9.01271 2.16998 8.77164 2.06756C8.53058 1.96513 8.27159 1.91157 8.00967 1.90997C7.74775 1.90837 7.48813 1.95878 7.24583 2.05826C7.00354 2.15774 6.7834 2.30432 6.59817 2.4895C6.41294 2.67468 6.26631 2.89479 6.16677 3.13706C6.06723 3.37933 6.01677 3.63895 6.0183 3.90086C6.01984 4.16278 6.07334 4.42179 6.17571 4.66287C6.27808 4.90396 6.42728 5.12233 6.61467 5.30533C6.9873 5.66925 7.48836 5.87162 8.0092 5.86857C8.53004 5.86551 9.02869 5.65729 9.39704 5.28903C9.76538 4.92078 9.97372 4.42218 9.9769 3.90133C9.98008 3.38049 9.77783 2.87939 9.414 2.50667ZM9.414 10.6813C9.23104 10.4939 9.01271 10.3447 8.77164 10.2422C8.53058 10.1398 8.27159 10.0862 8.00967 10.0846C7.74775 10.083 7.48813 10.1334 7.24583 10.2329C7.00354 10.3324 6.7834 10.479 6.59817 10.6642C6.41294 10.8494 6.26631 11.0695 6.16677 11.3117C6.06723 11.554 6.01677 11.8136 6.0183 12.0755C6.01984 12.3374 6.07334 12.5965 6.17571 12.8375C6.27808 13.0786 6.42728 13.297 6.61467 13.48C6.9873 13.8439 7.48836 14.0463 8.0092 14.0432C8.53004 14.0402 9.02869 13.832 9.39704 13.4637C9.76538 13.0954 9.97372 12.5968 9.9769 12.076C9.98008 11.5552 9.77783 11.0541 9.414 10.6813ZM8.38467 7.59533C8.33231 7.54294 8.27015 7.50136 8.20173 7.47299C8.13331 7.44462 8.05997 7.43 7.9859 7.42997C7.91183 7.42993 7.83848 7.44449 7.77004 7.47281C7.70159 7.50113 7.6394 7.54265 7.587 7.595C7.5346 7.64735 7.49303 7.70952 7.46466 7.77794C7.43628 7.84636 7.42166 7.91969 7.42163 7.99376C7.4216 8.06783 7.43616 8.14119 7.46448 8.20963C7.49279 8.27807 7.53431 8.34027 7.58667 8.39267C7.6924 8.49849 7.83584 8.55797 7.98543 8.55804C8.13502 8.5581 8.27851 8.49873 8.38433 8.393C8.49015 8.28727 8.54964 8.14383 8.5497 7.99424C8.54976 7.84464 8.4904 7.70115 8.38467 7.59533ZM20.4247 7.166C18.2047 11.7747 14.9813 13.7847 12.668 14.6593C10.9547 15.3067 9.49333 15.4447 8.702 15.4647C8.47 15.486 8.23667 15.5 8.00067 15.5C3.858 15.5 0.5 12.142 0.5 8C0.5 3.858 3.858 0.5 8 0.5C12.1427 0.5 15.5 3.858 15.5 8C15.502 9.71181 14.9151 11.3722 13.838 12.7027C15.726 11.628 17.734 9.78133 19.2633 6.60733C19.3429 6.46277 19.4749 6.3542 19.632 6.30392C19.7892 6.25365 19.9597 6.2655 20.1084 6.33704C20.2571 6.40858 20.3728 6.53437 20.4316 6.68855C20.4904 6.84273 20.4879 7.01359 20.4247 7.166Z" fill="white"/>
</svg>
