<svg width="18" height="18" viewBox="0 0 18 18" fill="none" xmlns="http://www.w3.org/2000/svg">
<path d="M15.5667 7.06667H10.9333V2.43333C10.9333 1.92058 10.7296 1.42883 10.3671 1.06626C10.0045 0.70369 9.51275 0.5 9 0.5C8.48725 0.5 7.9955 0.70369 7.63293 1.06626C7.27036 1.42883 7.06667 1.92058 7.06667 2.43333V7.06667H2.43333C1.92058 7.06667 1.42883 7.27036 1.06626 7.63293C0.70369 7.9955 0.5 8.48725 0.5 9C0.5 9.51275 0.70369 10.0045 1.06626 10.3671C1.42883 10.7296 1.92058 10.9333 2.43333 10.9333H7.06667V15.5667C7.06667 16.0794 7.27036 16.5712 7.63293 16.9337C7.9955 17.2963 8.48725 17.5 9 17.5C9.51275 17.5 10.0045 17.2963 10.3671 16.9337C10.7296 16.5712 10.9333 16.0794 10.9333 15.5667V10.9333H15.5667C16.0794 10.9333 16.5712 10.7296 16.9337 10.3671C17.2963 10.0045 17.5 9.51275 17.5 9C17.5 8.48725 17.2963 7.9955 16.9337 7.63293C16.5712 7.27036 16.0794 7.06667 15.5667 7.06667Z" fill="white"/>
</svg>
