<svg width="16" height="16" viewBox="0 0 16 16" fill="none" xmlns="http://www.w3.org/2000/svg">
<path d="M8.56 3.97699H13.0413C13.7486 3.97699 14.4269 4.25794 14.927 4.75804C15.427 5.25814 15.708 5.93641 15.708 6.64366V13.3337C15.708 14.0409 15.427 14.7192 14.927 15.2193C14.4269 15.7194 13.7486 16.0003 13.0413 16.0003H2.91667C2.20942 16.0003 1.53115 15.7194 1.03105 15.2193C0.530951 14.7192 0.25 14.0409 0.25 13.3337V6.64366C0.25 5.93641 0.530951 5.25814 1.03105 4.75804C1.53115 4.25794 2.20942 3.97699 2.91667 3.97699H7.05733L4.40333 1.32299C4.33137 1.25107 4.27428 1.16568 4.23531 1.07169C4.19635 0.977707 4.17628 0.876967 4.17625 0.775225C4.17622 0.673483 4.19622 0.572731 4.23513 0.478722C4.27404 0.384712 4.33108 0.299287 4.403 0.227322C4.47492 0.155358 4.56031 0.098264 4.6543 0.0593004C4.74828 0.0203368 4.84902 0.000266509 4.95076 0.000235558C5.05251 0.000204606 5.15326 0.0202138 5.24727 0.0591202C5.34128 0.0980266 5.4267 0.155069 5.49867 0.226989L7.80867 2.53699L10.118 0.226989C10.2633 0.0816505 10.4605 -4.84268e-09 10.666 0C10.8715 4.84269e-09 11.0687 0.0816505 11.214 0.226989C11.3593 0.372328 11.441 0.569449 11.441 0.774989C11.441 0.980529 11.3593 1.17765 11.214 1.32299L8.55933 3.97699H8.56ZM12.8453 9.13032C13.1491 9.13032 13.4404 9.00965 13.6552 8.79486C13.87 8.58007 13.9907 8.28875 13.9907 7.98499C13.9907 7.68123 13.87 7.38991 13.6552 7.17512C13.4404 6.96032 13.1491 6.83966 12.8453 6.83966C12.5416 6.83966 12.2503 6.96032 12.0355 7.17512C11.8207 7.38991 11.7 7.68123 11.7 7.98499C11.7 8.28875 11.8207 8.58007 12.0355 8.79486C12.2503 9.00965 12.5416 9.13032 12.8453 9.13032ZM12.8453 13.1377C12.998 13.1413 13.1499 13.1145 13.292 13.0586C13.4342 13.0027 13.5637 12.9189 13.673 12.8122C13.7823 12.7056 13.8692 12.5781 13.9285 12.4373C13.9878 12.2966 14.0183 12.1454 14.0183 11.9927C14.0183 11.8399 13.9878 11.6887 13.9285 11.548C13.8692 11.4072 13.7823 11.2798 13.673 11.1731C13.5637 11.0664 13.4342 10.9826 13.292 10.9267C13.1499 10.8709 12.998 10.844 12.8453 10.8477C12.5464 10.8549 12.2622 10.9787 12.0534 11.1926C11.8445 11.4066 11.7276 11.6937 11.7276 11.9927C11.7276 12.2916 11.8445 12.5788 12.0534 12.7927C12.2622 13.0066 12.5464 13.1304 12.8453 13.1377Z" fill="white"/>
</svg>
