<svg width="330" height="113" viewBox="0 0 330 113" fill="none" xmlns="http://www.w3.org/2000/svg">
<path d="M38.3979 71.5518C47.9843 71.5518 55.7557 63.7805 55.7557 54.194C55.7557 44.6075 47.9843 36.8362 38.3979 36.8362C28.8114 36.8362 21.04 44.6075 21.04 54.194C21.04 63.7805 28.8114 71.5518 38.3979 71.5518Z" fill="#FC8001"/>
<path d="M38.4304 37.802C36.331 37.7996 34.2562 38.2536 32.3495 39.1324C30.4429 40.0111 28.75 41.2938 27.3881 42.8915C26.0261 44.4892 25.0277 46.3638 24.4619 48.3856C23.8961 50.4073 23.7764 52.5279 24.1111 54.6004C25.9866 49.7026 31.1058 46.1851 37.1345 46.1851C42.1692 46.1851 46.5721 48.6361 48.9787 52.2984H49.023C50.4258 52.2622 51.7938 52.7386 52.8705 53.6386C52.9107 53.1999 52.9309 52.7572 52.9309 52.3064C52.9309 48.4639 51.4044 44.7787 48.6873 42.0616C45.9702 39.3446 42.2851 37.8181 38.4425 37.8181" fill="#FDCC01"/>
<path d="M52.8704 53.6385C51.7937 52.7385 50.4258 52.2621 49.023 52.2983H48.9787C44.7127 52.3265 40.2253 56.0331 38.9174 60.605C38.2332 63.0398 38.5954 65.2291 39.7223 66.7464C39.2916 66.7866 38.8489 66.8108 38.4062 66.8108C34.9566 66.8134 31.6192 65.5852 28.9943 63.3469C26.3694 61.1085 24.6293 58.0071 24.0869 54.6003C23.5885 55.9169 23.3361 57.3138 23.3424 58.7215C23.3567 60.4424 23.742 62.14 24.4719 63.6985C25.2019 65.257 26.2593 66.6398 27.5722 67.7525C29.6316 69.3929 32.0371 70.5436 34.6066 71.1176C37.1761 71.6917 39.8425 71.6742 42.4043 71.0663C44.966 70.4584 47.3561 69.2761 49.3937 67.6088C51.4314 65.9415 53.0634 63.8328 54.1663 61.4421C54.2669 61.1684 54.3595 60.8867 54.44 60.605C55.2449 57.6872 54.5768 55.1195 52.8704 53.6385Z" fill="#FD0024"/>
<path d="M97.9333 57.9408L99.0562 53.7553C99.1105 53.5509 99.1102 53.3358 99.0553 53.1315C99.0003 52.9272 98.8927 52.741 98.7431 52.5914C98.5935 52.4418 98.4073 52.3342 98.203 52.2792C97.9987 52.2243 97.7836 52.224 97.5792 52.2783L93.3937 53.3971C93.1906 53.453 93.0057 53.5609 92.8572 53.7103C92.7088 53.8597 92.602 54.0453 92.5475 54.2488C92.493 54.4522 92.4926 54.6663 92.5465 54.8699C92.6003 55.0735 92.7064 55.2595 92.8544 55.4094L95.9171 58.4721C96.0663 58.6211 96.252 58.7284 96.4556 58.7833C96.6593 58.8382 96.8737 58.8389 97.0777 58.7851C97.2816 58.7314 97.4679 58.6252 97.618 58.477C97.7682 58.3289 97.8769 58.144 97.9333 57.9408Z" fill="#FDCC01"/>
<path d="M147.093 52.8216V67.1168C147.093 67.1873 147.065 67.2548 147.015 67.3046C146.965 67.3544 146.898 67.3824 146.827 67.3824H143.487C143.417 67.3814 143.351 67.3529 143.302 67.3032C143.253 67.2535 143.225 67.1866 143.225 67.1168V54.0733C143.225 49.9441 140.959 47.5173 137.072 47.5173C133.369 47.5173 130.467 50.089 130.467 54.1658V67.1168C130.467 67.1866 130.44 67.2535 130.391 67.3032C130.342 67.3529 130.276 67.3814 130.206 67.3824H126.865C126.796 67.3814 126.729 67.3529 126.68 67.3032C126.631 67.2535 126.604 67.1866 126.604 67.1168V54.0733C126.604 49.928 124.358 47.5133 120.45 47.5133C116.828 47.5133 113.822 49.9884 113.822 54.1618V67.1128C113.822 67.1825 113.795 67.2495 113.746 67.2992C113.697 67.3489 113.63 67.3773 113.56 67.3784H110.244C110.174 67.3774 110.107 67.349 110.057 67.2995C110.008 67.2499 109.98 67.1829 109.979 67.1128V44.5754C109.98 44.5056 110.008 44.4391 110.058 44.3901C110.107 44.3412 110.174 44.3138 110.244 44.3138H113.536C113.606 44.3138 113.672 44.3413 113.721 44.3904C113.77 44.4395 113.798 44.506 113.798 44.5754V46.4991C113.8 46.5515 113.817 46.6022 113.847 46.6448C113.878 46.6874 113.92 46.72 113.97 46.7385C114.019 46.757 114.072 46.7606 114.123 46.7488C114.174 46.737 114.221 46.7103 114.257 46.6722C116.096 44.5834 118.744 43.855 121.135 43.855C124.757 43.855 127.634 45.3924 129.184 47.964C129.207 48.0033 129.24 48.0358 129.279 48.0583C129.319 48.0809 129.363 48.0928 129.409 48.0928C129.455 48.0928 129.499 48.0809 129.539 48.0583C129.578 48.0358 129.611 48.0033 129.634 47.964C131.522 44.8772 134.834 43.855 137.756 43.855C143.298 43.863 147.093 47.4449 147.093 52.8216Z" fill="white"/>
<path d="M174.178 55.5342C174.178 62.2994 169.248 67.2053 162.977 67.2053C159.73 67.2053 157.259 66.0543 155.528 64.2393C155.492 64.2012 155.445 64.175 155.393 64.164C155.342 64.1531 155.288 64.158 155.239 64.178C155.191 64.1979 155.149 64.2322 155.12 64.2761C155.091 64.3201 155.076 64.3718 155.077 64.4244V75.9024C155.077 75.9718 155.05 76.0383 155.001 76.0874C154.952 76.1364 154.885 76.164 154.816 76.164H151.5C151.43 76.164 151.363 76.1366 151.313 76.0876C151.263 76.0387 151.235 75.9721 151.234 75.9024V44.5955C151.235 44.5258 151.263 44.4592 151.313 44.4103C151.363 44.3613 151.43 44.3339 151.5 44.3339H154.816C154.885 44.3339 154.952 44.3615 155.001 44.4105C155.05 44.4596 155.077 44.5261 155.077 44.5955V46.644C155.076 46.6966 155.091 46.7483 155.12 46.7923C155.149 46.8362 155.191 46.8704 155.239 46.8904C155.288 46.9104 155.342 46.9153 155.393 46.9043C155.445 46.8934 155.492 46.8672 155.528 46.8291C157.259 45.0141 159.73 43.863 162.977 43.863C169.248 43.863 174.178 48.7689 174.178 55.5342ZM154.86 55.5342C154.86 60.1302 158.019 63.5833 162.547 63.5833C167.191 63.5833 170.234 59.9612 170.234 55.5342C170.234 51.1072 167.119 47.4851 162.547 47.4851C157.975 47.4851 154.844 50.9583 154.844 55.5342H154.86Z" fill="white"/>
<path d="M217.728 49.0668C217.711 49.0979 217.687 49.1252 217.659 49.1469C217.631 49.1686 217.599 49.1843 217.565 49.193C217.53 49.2017 217.494 49.2032 217.46 49.1974C217.425 49.1916 217.391 49.1787 217.361 49.1594C215.241 47.9218 212.834 47.2588 210.379 47.2356C207.312 47.2356 205.332 48.5315 205.332 50.5599C205.332 52.3508 206.942 53.1758 209.67 53.5059L212.266 53.8359C217.027 54.4718 219.832 56.476 219.832 60.1785C219.832 64.4446 216.013 67.2054 209.908 67.2054C207.211 67.2054 203.589 66.5735 200.676 64.4767C200.621 64.4364 200.584 64.3773 200.572 64.311C200.559 64.2447 200.572 64.176 200.607 64.1186L202.116 61.7038C202.135 61.6726 202.16 61.6456 202.19 61.6247C202.22 61.6038 202.254 61.5895 202.289 61.5826C202.325 61.5758 202.362 61.5766 202.397 61.585C202.433 61.5934 202.466 61.6092 202.495 61.6314C204.145 62.8388 206.346 63.8409 209.928 63.8409C213.606 63.8409 215.872 62.6335 215.872 60.424C215.872 58.774 214.411 57.7356 211.369 57.3573L208.777 57.0515C203.754 56.4397 201.324 54.1739 201.324 50.7812C201.324 46.4871 204.885 43.8953 210.33 43.8953C213.759 43.8953 216.899 44.7807 219.064 46.1852C219.119 46.2236 219.158 46.2809 219.173 46.3462C219.189 46.4115 219.18 46.4803 219.148 46.5394L217.728 49.0668Z" fill="white"/>
<path d="M237.4 49.0668C237.382 49.098 237.359 49.1254 237.33 49.1471C237.302 49.1689 237.269 49.1846 237.234 49.1933C237.2 49.2019 237.164 49.2034 237.128 49.1976C237.093 49.1917 237.059 49.1787 237.029 49.1594C234.909 47.9205 232.502 47.2573 230.047 47.2356C226.98 47.2356 225 48.5315 225 50.5599C225 52.3508 226.61 53.1758 229.338 53.5059L231.934 53.8359C236.695 54.4718 239.5 56.476 239.5 60.1785C239.5 64.4446 235.681 67.2054 229.576 67.2054C226.879 67.2054 223.257 66.5735 220.344 64.4767C220.289 64.4364 220.252 64.3773 220.24 64.311C220.227 64.2447 220.24 64.176 220.275 64.1186L221.784 61.7038C221.803 61.6726 221.828 61.6456 221.858 61.6247C221.888 61.6038 221.922 61.5895 221.957 61.5826C221.993 61.5758 222.03 61.5766 222.065 61.585C222.101 61.5934 222.134 61.6092 222.163 61.6314C223.813 62.8388 226.018 63.8409 229.6 63.8409C233.278 63.8409 235.54 62.6335 235.54 60.424C235.54 58.774 234.079 57.7356 231.037 57.3573L228.445 57.0515C223.422 56.4397 220.992 54.1739 220.992 50.7812C220.992 46.4871 224.553 43.8953 229.998 43.8953C233.427 43.8953 236.566 44.7807 238.732 46.1852C238.787 46.223 238.827 46.2803 238.843 46.3459C238.858 46.4114 238.849 46.4805 238.816 46.5394L237.4 49.0668Z" fill="white"/>
<path d="M79.1105 61.3012C79.0623 61.2535 78.9972 61.2268 78.9294 61.2268C78.8616 61.2268 78.7966 61.2535 78.7483 61.3012C75.4361 64.4323 70.7596 64.3397 67.6527 61.2328C64.4693 58.0494 64.4331 53.2642 67.7694 49.944C71.0212 46.6921 75.6736 46.66 78.857 49.6663C78.8806 49.6904 78.9088 49.7095 78.9399 49.7226C78.971 49.7357 79.0044 49.7424 79.0381 49.7424C79.0718 49.7424 79.1052 49.7357 79.1363 49.7226C79.1674 49.7095 79.1956 49.6904 79.2192 49.6663L81.4166 47.4689C81.4418 47.4438 81.4618 47.414 81.4754 47.3812C81.4891 47.3484 81.4961 47.3132 81.4961 47.2777C81.4961 47.2422 81.4891 47.207 81.4754 47.1742C81.4618 47.1414 81.4418 47.1116 81.4166 47.0866C76.6194 42.4785 69.6287 42.5227 64.9884 47.163C60.2878 51.8637 60.3039 58.9831 65.1052 63.7844C69.838 68.5172 76.8367 68.6138 81.5414 64.1144C81.5692 64.0887 81.5914 64.0576 81.6065 64.023C81.6217 63.9884 81.6296 63.951 81.6296 63.9131C81.6296 63.8753 81.6217 63.8379 81.6065 63.8033C81.5914 63.7687 81.5692 63.7375 81.5414 63.7119L79.1105 61.3012Z" fill="white"/>
<path d="M87.2921 55.5261C87.3601 55.5251 87.425 55.4976 87.4731 55.4496C87.5211 55.4015 87.5486 55.3366 87.5496 55.2686C87.6784 50.7168 91.051 47.473 95.4458 47.473C99.9492 47.473 103.346 50.8456 103.346 55.5221C103.346 60.1222 100.078 63.4303 95.6993 63.5712C95.6307 63.5723 95.5651 63.6003 95.517 63.6492C95.4688 63.6982 95.4418 63.7641 95.4418 63.8328V66.9357C95.4418 67.0072 95.4702 67.0758 95.5207 67.1264C95.5713 67.1769 95.6399 67.2054 95.7114 67.2054C102.368 67.0725 107.278 62.0942 107.278 55.5342C107.278 48.8816 102.231 43.863 95.4418 43.863C88.749 43.863 83.7263 48.7408 83.5855 55.2485C83.5849 55.2842 83.5915 55.3197 83.6048 55.3529C83.6181 55.3861 83.6379 55.4163 83.663 55.4417C83.6881 55.4672 83.718 55.4874 83.751 55.5012C83.784 55.515 83.8194 55.5221 83.8551 55.5221L87.2921 55.5261Z" fill="white"/>
<path d="M198.051 44.3339H194.735C194.665 44.3349 194.599 44.3634 194.55 44.4131C194.501 44.4628 194.473 44.5297 194.473 44.5995V46.6118C192.316 44.7043 189.526 43.6672 186.646 43.702C179.997 43.702 174.975 48.7488 174.975 55.5382C174.975 62.231 179.856 67.2496 186.364 67.3945C186.436 67.3945 186.504 67.3661 186.555 67.3155C186.605 67.2649 186.634 67.1963 186.634 67.1248V63.6919C186.634 63.6581 186.628 63.6245 186.616 63.593C186.603 63.5616 186.585 63.5329 186.561 63.5086C186.538 63.4843 186.509 63.4649 186.478 63.4514C186.447 63.438 186.414 63.4308 186.38 63.4303C181.828 63.3055 178.585 59.933 178.585 55.5382C178.585 51.0347 181.953 47.638 186.634 47.638C190.634 47.638 194.461 50.4552 194.461 53.6265V67.1289C194.461 67.1986 194.489 67.2656 194.538 67.3153C194.587 67.365 194.653 67.3934 194.723 67.3945H198.039C198.109 67.3934 198.176 67.3651 198.226 67.3155C198.275 67.2659 198.304 67.199 198.305 67.1289V44.5995C198.304 44.5314 198.277 44.4661 198.23 44.4169C198.183 44.3676 198.119 44.3379 198.051 44.3339Z" fill="white"/>
<path d="M308.139 59.0839C305.414 59.0839 304.159 57.6874 304.159 54.9668V38.1965H295.804V50.6485C294.844 48.5882 293.316 46.8449 291.399 45.6234C289.482 44.4019 287.256 43.753 284.984 43.753C282.711 43.753 280.485 44.4019 278.568 45.6234C276.652 46.8449 275.124 48.5882 274.164 50.6485V43.9999H265.929V55.7194C265.929 57.8323 264.819 59.265 262.955 59.265C261.092 59.265 259.985 57.8323 259.985 55.7194V43.9999H251.634V55.824C251.634 63.0682 256.061 67.6119 262.955 67.6119C268.481 67.6119 272.421 64.5492 273.713 59.5829C274.52 61.912 276.027 63.9343 278.029 65.3721C280.031 66.8098 282.429 67.5926 284.894 67.6129C287.359 67.6332 289.769 66.89 291.795 65.4854C293.82 64.0807 295.361 62.0835 296.206 59.7681C297.413 65.0804 301.438 67.4348 306.847 67.4348H308.96V59.0839H308.139ZM284.994 59.265C284.284 59.2658 283.59 59.0561 283 58.6623C282.41 58.2686 281.949 57.7086 281.678 57.0532C281.406 56.3978 281.334 55.6765 281.472 54.9805C281.611 54.2846 281.952 53.6453 282.454 53.1435C282.956 52.6418 283.595 52.3002 284.291 52.162C284.987 52.0237 285.708 52.0951 286.364 52.367C287.019 52.6389 287.579 53.0991 287.973 53.6894C288.367 54.2797 288.576 54.9736 288.575 55.6832C288.572 56.6321 288.194 57.5413 287.523 58.2124C286.852 58.8834 285.943 59.2618 284.994 59.265Z" fill="white"/>
<path d="M244.832 67.2898C244.302 67.2898 243.847 67.1 243.467 66.7204C243.088 66.3407 242.898 65.8859 242.898 65.3558C242.898 64.8258 243.088 64.3709 243.467 63.9913C243.847 63.6116 244.302 63.4218 244.832 63.4218C245.362 63.4218 245.817 63.6116 246.196 63.9913C246.576 64.3709 246.766 64.8258 246.766 65.3558C246.766 65.7068 246.676 66.0291 246.497 66.3228C246.325 66.6165 246.093 66.8529 245.799 67.032C245.512 67.2039 245.19 67.2898 244.832 67.2898Z" fill="white"/>
</svg>
