<svg width="37" height="37" viewBox="0 0 37 37" fill="none" xmlns="http://www.w3.org/2000/svg">
<path d="M7.40002 11.1001C6.72169 11.1001 6.16669 11.6551 6.16669 12.3334V28.3667C6.16669 29.7234 7.27669 30.8334 8.63335 30.8334H24.6667C25.345 30.8334 25.9 30.2784 25.9 29.6001C25.9 28.9217 25.345 28.3667 24.6667 28.3667H9.86669C9.18835 28.3667 8.63335 27.8117 8.63335 27.1334V12.3334C8.63335 11.6551 8.07835 11.1001 7.40002 11.1001ZM28.3667 6.16675H13.5667C12.21 6.16675 11.1 7.27675 11.1 8.63341V23.4334C11.1 24.7901 12.21 25.9001 13.5667 25.9001H28.3667C29.7234 25.9001 30.8334 24.7901 30.8334 23.4334V8.63341C30.8334 7.27675 29.7234 6.16675 28.3667 6.16675ZM18.5 21.5834V10.4834L25.2464 15.5401C25.5794 15.7867 25.5794 16.2801 25.2464 16.5267L18.5 21.5834Z" fill="white"/>
</svg>
