<svg width="37" height="37" viewBox="0 0 37 37" fill="none" xmlns="http://www.w3.org/2000/svg">
<path d="M7.92859 22.0239C6.95954 22.0239 6.16669 22.8167 6.16669 23.7858V29.0715C6.16669 30.0406 6.95954 30.8334 7.92859 30.8334H13.2143C14.1834 30.8334 14.9762 30.0406 14.9762 29.0715C14.9762 28.1025 14.1834 27.3096 13.2143 27.3096H9.6905V23.7858C9.6905 22.8167 8.89764 22.0239 7.92859 22.0239ZM7.92859 14.9763C8.89764 14.9763 9.6905 14.1834 9.6905 13.2144V9.69056H13.2143C14.1834 9.69056 14.9762 8.8977 14.9762 7.92865C14.9762 6.95961 14.1834 6.16675 13.2143 6.16675H7.92859C6.95954 6.16675 6.16669 6.95961 6.16669 7.92865V13.2144C6.16669 14.1834 6.95954 14.9763 7.92859 14.9763ZM27.3095 27.3096H23.7857C22.8167 27.3096 22.0238 28.1025 22.0238 29.0715C22.0238 30.0406 22.8167 30.8334 23.7857 30.8334H29.0714C30.0405 30.8334 30.8334 30.0406 30.8334 29.0715V23.7858C30.8334 22.8167 30.0405 22.0239 29.0714 22.0239C28.1024 22.0239 27.3095 22.8167 27.3095 23.7858V27.3096ZM22.0238 7.92865C22.0238 8.8977 22.8167 9.69056 23.7857 9.69056H27.3095V13.2144C27.3095 14.1834 28.1024 14.9763 29.0714 14.9763C30.0405 14.9763 30.8334 14.1834 30.8334 13.2144V7.92865C30.8334 6.95961 30.0405 6.16675 29.0714 6.16675H23.7857C22.8167 6.16675 22.0238 6.95961 22.0238 7.92865Z" fill="white"/>
</svg>
