<svg width="37" height="37" viewBox="0 0 37 37" fill="none" xmlns="http://www.w3.org/2000/svg">
<path d="M27.9155 19.7439C27.2348 19.7439 26.6766 20.2477 26.5813 20.9148C25.9277 25.5031 21.4484 28.866 16.4789 27.6679C13.4155 26.9327 11.1554 24.5773 10.5019 21.5003C9.39904 16.2312 13.4155 11.5749 18.4939 11.5749V15.3735C18.4939 15.9862 19.2291 16.2857 19.6512 15.85L24.8113 10.6899C25.0836 10.4176 25.0836 9.99552 24.8113 9.72322L19.6512 4.56311C19.2291 4.14104 18.4939 4.44057 18.4939 5.05325V8.85186C11.7681 8.85186 6.45818 14.9514 7.81969 21.9223C8.6366 26.1566 11.7681 29.4106 15.9751 30.3501C22.5512 31.8205 28.4329 27.3547 29.277 21.2688C29.3996 20.4655 28.7324 19.7439 27.9155 19.7439ZM16.9962 23.8284V18.0148H16.8737L14.4638 18.8725V19.812L15.839 19.3899V23.8284H16.9962ZM21.6526 18.0829C21.4075 17.9876 21.1488 17.9467 20.8493 17.9467C20.5498 17.9467 20.2911 17.9876 20.046 18.0829C19.801 18.1782 19.5967 18.3279 19.4333 18.5322C19.27 18.7364 19.1202 18.9951 19.0385 19.3082C18.9568 19.6214 18.9024 19.989 18.9024 20.4247V21.4322C18.9024 21.8679 18.9568 22.2491 19.0521 22.5486C19.1474 22.8482 19.2836 23.1205 19.4606 23.3247C19.6376 23.5289 19.8418 23.6787 20.0869 23.774C20.3319 23.8693 20.5906 23.9101 20.8902 23.9101C21.1897 23.9101 21.4484 23.8693 21.6934 23.774C21.9385 23.6787 22.1427 23.5289 22.3061 23.3247C22.4695 23.1205 22.6057 22.8618 22.701 22.5486C22.7963 22.2355 22.8371 21.8679 22.8371 21.4322V20.4247C22.8371 19.989 22.7827 19.6078 22.6873 19.3082C22.592 19.0087 22.4559 18.7364 22.2789 18.5322C22.1019 18.3279 21.8841 18.1782 21.6526 18.0829ZM21.6662 21.5819C21.6662 21.8406 21.6526 22.0585 21.6118 22.2355C21.5709 22.4125 21.5301 22.5622 21.462 22.6712C21.3939 22.7801 21.3122 22.8618 21.2033 22.9026C21.0944 22.9435 20.9855 22.9707 20.8629 22.9707C20.7404 22.9707 20.6179 22.9435 20.5226 22.9026C20.4272 22.8618 20.3319 22.7801 20.2639 22.6712C20.1958 22.5622 20.1413 22.4125 20.1005 22.2355C20.0596 22.0585 20.046 21.8406 20.046 21.5819V20.2613C20.046 20.0026 20.0596 19.7848 20.1005 19.6078C20.1413 19.4308 20.1822 19.2946 20.2639 19.1857C20.3456 19.0768 20.4136 18.9951 20.5226 18.9542C20.6315 18.9134 20.7404 18.8862 20.8629 18.8862C20.9855 18.8862 21.108 18.9134 21.2033 18.9542C21.2986 18.9951 21.3939 19.0768 21.462 19.1857C21.5301 19.2946 21.5845 19.4308 21.6254 19.6078C21.6662 19.7848 21.6798 20.0026 21.6798 20.2613V21.5819H21.6662Z" fill="white"/>
</svg>
