<svg width="37" height="37" viewBox="0 0 37 37" fill="none" xmlns="http://www.w3.org/2000/svg">
<path d="M18.5 6.16675C11.692 6.16675 6.16669 11.6921 6.16669 18.5001C6.16669 25.3081 11.692 30.8334 18.5 30.8334C25.308 30.8334 30.8334 25.3081 30.8334 18.5001C30.8334 11.6921 25.308 6.16675 18.5 6.16675ZM19.7334 27.1334H17.2667V24.6667H19.7334V27.1334ZM22.2864 17.5751L21.1764 18.7097C20.5597 19.3387 20.1157 19.9061 19.8937 20.7941C19.795 21.1887 19.7334 21.6327 19.7334 22.2001H17.2667V21.5834C17.2667 21.0161 17.3654 20.4734 17.538 19.9677C17.7847 19.2524 18.1917 18.6111 18.7097 18.0931L20.239 16.5391C20.8064 15.9964 21.0777 15.1824 20.9174 14.3191C20.757 13.4311 20.0664 12.6787 19.203 12.4321C17.834 12.0497 16.5637 12.8267 16.1567 13.9984C16.0087 14.4547 15.6264 14.8001 15.1454 14.8001H14.7754C14.06 14.8001 13.5667 14.1094 13.764 13.4187C14.2944 11.6057 15.836 10.2244 17.7477 9.92841C19.6224 9.63241 21.4107 10.6067 22.5207 12.1484C23.976 14.1587 23.5444 16.3171 22.2864 17.5751Z" fill="white"/>
</svg>
