<svg width="14" height="16" viewBox="0 0 14 16" fill="none" xmlns="http://www.w3.org/2000/svg">
<path d="M13.0982 9.61371L2.5135 15.5157C2.29031 15.6399 2.03855 15.7037 1.78313 15.7008C1.52771 15.6978 1.2775 15.6282 1.05726 15.4988C0.837018 15.3694 0.654386 15.1848 0.527442 14.9631C0.400497 14.7414 0.333643 14.4905 0.333496 14.235V2.43104C0.333578 2.17551 0.400419 1.92444 0.527398 1.70269C0.654377 1.48094 0.837087 1.29622 1.05743 1.16681C1.27777 1.03741 1.5281 0.967821 1.78361 0.964937C2.03912 0.962053 2.29096 1.02598 2.51416 1.15037L13.0982 7.05171C13.3263 7.17889 13.5163 7.36469 13.6486 7.58989C13.7808 7.81509 13.8506 8.07153 13.8506 8.33271C13.8506 8.59388 13.7808 8.85032 13.6486 9.07552C13.5163 9.30072 13.3263 9.48652 13.0982 9.61371Z" fill="#1A1D29"/>
</svg>
