<svg width="37" height="37" viewBox="0 0 37 37" fill="none" xmlns="http://www.w3.org/2000/svg">
<path d="M18.4919 8.93318V5.16907C18.4919 4.56196 17.7634 4.26515 17.3451 4.69687L12.2319 9.81012C11.9621 10.08 11.9621 10.4982 12.2319 10.768L17.3451 15.8813C17.7634 16.2995 18.4919 16.0027 18.4919 15.4091V11.6315C23.5242 11.6315 27.5042 16.2455 26.3979 21.4667C25.7638 24.5293 23.2814 26.9982 20.2323 27.6323C15.4159 28.6441 11.1256 25.3387 10.478 20.8731C10.3971 20.2255 9.83043 19.7263 9.15585 19.7263C8.34637 19.7263 7.69878 20.4414 7.80671 21.2508C8.64318 27.1736 14.2826 31.5583 20.664 30.3171C24.8734 29.4941 28.2597 26.1078 29.0827 21.8984C30.4183 14.9773 25.1702 8.93318 18.4919 8.93318ZM17.0079 23.7737H15.8611V19.3755L14.4985 19.7938V18.8629L16.8864 18.0129H17.0079V23.7737ZM22.7822 21.3993C22.7822 21.831 22.7417 22.2087 22.6473 22.5055C22.5528 22.8024 22.4179 23.0722 22.256 23.2746C22.0941 23.4769 21.8783 23.6253 21.6489 23.7198C21.4196 23.8142 21.1497 23.8547 20.8529 23.8547C20.5561 23.8547 20.2998 23.8142 20.0569 23.7198C19.8141 23.6253 19.6117 23.4769 19.4363 23.2746C19.2609 23.0722 19.126 22.8159 19.0316 22.5055C18.9371 22.1952 18.8832 21.831 18.8832 21.3993V20.4009C18.8832 19.9692 18.9236 19.5914 19.0181 19.2946C19.1125 18.9978 19.2474 18.728 19.4093 18.5256C19.5712 18.3232 19.7871 18.1748 20.0164 18.0804C20.2458 17.9859 20.5156 17.9454 20.8124 17.9454C21.1093 17.9454 21.3656 17.9859 21.6084 18.0804C21.8513 18.1748 22.0537 18.3232 22.229 18.5256C22.4044 18.728 22.5393 18.9843 22.6338 19.2946C22.7282 19.6049 22.7822 19.9692 22.7822 20.4009V21.3993ZM21.6354 20.239C21.6354 19.9827 21.6219 19.7668 21.5815 19.5914C21.541 19.416 21.487 19.2811 21.4196 19.1732C21.3521 19.0652 21.2711 18.9843 21.1632 18.9438C21.0553 18.9033 20.9474 18.8764 20.8259 18.8764C20.7045 18.8764 20.5831 18.9033 20.4886 18.9438C20.3942 18.9843 20.2998 19.0652 20.2323 19.1732C20.1649 19.2811 20.1109 19.416 20.0704 19.5914C20.0299 19.7668 20.0164 19.9827 20.0164 20.239V21.5477C20.0164 21.804 20.0299 22.0199 20.0704 22.1952C20.1109 22.3706 20.1649 22.519 20.2323 22.627C20.2998 22.7349 20.3807 22.8159 20.4886 22.8563C20.5966 22.8968 20.7045 22.9238 20.8259 22.9238C20.9474 22.9238 21.0688 22.8968 21.1632 22.8563C21.2577 22.8159 21.3521 22.7349 21.4196 22.627C21.487 22.519 21.541 22.3706 21.568 22.1952C21.5949 22.0199 21.6219 21.804 21.6219 21.5477V20.239H21.6354Z" fill="white"/>
</svg>
