<svg width="37" height="37" viewBox="0 0 37 37" fill="none" xmlns="http://www.w3.org/2000/svg">
<path d="M5.38098 15.5847V21.4154C5.38098 22.2171 6.03693 22.873 6.83864 22.873H11.2116L16.0073 27.6688C16.9257 28.5871 18.4999 27.9311 18.4999 26.6338V10.3517C18.4999 9.05441 16.9257 8.39846 16.0073 9.31679L11.2116 14.1271H6.83864C6.03693 14.1271 5.38098 14.783 5.38098 15.5847ZM25.0594 18.5001C25.0594 15.92 23.5726 13.7044 21.4153 12.6257V24.3599C23.5726 23.2958 25.0594 21.0801 25.0594 18.5001ZM21.4153 7.49471V7.78624C21.4153 8.34016 21.7797 8.82118 22.2899 9.02526C26.0506 10.5266 28.7036 14.2145 28.7036 18.5001C28.7036 22.7856 26.0506 26.4735 22.2899 27.9749C21.7651 28.1789 21.4153 28.66 21.4153 29.2139V29.5054C21.4153 30.4237 22.3336 31.0651 23.179 30.7444C28.1205 28.864 31.6189 24.0975 31.6189 18.5001C31.6189 12.9026 28.1205 8.13608 23.179 6.2557C22.3336 5.92044 21.4153 6.57638 21.4153 7.49471Z" fill="white"/>
</svg>
